<svg xmlns="http://www.w3.org/2000/svg" viewBox="0 0 1360 356.69"><defs><style>.cls-1{font-size:280.83px;font-family:NHaasGroteskDSPro-75Bd, Neue Haas Grotesk Display Pro;}.cls-2{letter-spacing:-0.04em;}.cls-3{letter-spacing:-0.01em;}</style></defs><g id="Layer_2" data-name="Layer 2"><g id="Layer_1-2" data-name="Layer 1"><path d="M1258.77,103.47V94.26c4.65,0,7,0,7-4.49V48.36h13.29V90.43c0,5.54-1.22,8.39-3.18,10.43-2.36,2.36-5.62,3.26-9.62,3.26A44.08,44.08,0,0,1,1258.77,103.47Zm7-71.66h13.29V42.57h-13.29Z"/><path d="M1284.45,91.08h12.88c.74,2.2,2.94,4.07,7.34,4.07,5.62,0,8-2.93,8-8V83h-.33a13.3,13.3,0,0,1-10.68,4.81c-9.37,0-18.09-7-18.09-19.81,0-12.23,7.17-20.87,17.52-20.87,5.54,0,9.29,2.2,11.74,5.71h.16V48.36h12.72V86c0,6.28-2.2,10.84-5.54,13.86-3.67,3.26-9.13,4.65-15.33,4.65C1293.34,104.53,1285.76,99.8,1284.45,91.08Zm28.78-23.56c0-5.63-2.94-10.35-8.48-10.35-5,0-8.23,4.07-8.23,10.43S1299.78,78,1304.75,78C1310.54,78,1313.23,73.39,1313.23,67.52Z"/><path d="M1289.79,140.42A70.21,70.21,0,1,1,1360,70.21,70.29,70.29,0,0,1,1289.79,140.42Zm0-128.19a58,58,0,1,0,58,58A58,58,0,0,0,1289.79,12.23Z"/><text class="cls-1" transform="translate(13.2 282.83)">ja<tspan class="cls-2" x="219.61" y="0">k</tspan><tspan x="365.64" y="0">eg</tspan><tspan class="cls-3" x="683.54" y="0">r</tspan><tspan x="788.29" y="0">ella</tspan></text></g></g></svg>