<svg xmlns="http://www.w3.org/2000/svg" viewBox="0 0 1360 332.54"><g id="Layer_2" data-name="Layer 2"><g id="Layer_1-2" data-name="Layer 1"><path d="M1258.77,103.47V94.26c4.65,0,7,0,7-4.49V48.36h13.28V90.43c0,5.54-1.22,8.39-3.18,10.43-2.36,2.36-5.62,3.26-9.62,3.26A44.08,44.08,0,0,1,1258.77,103.47Zm7-71.66h13.28V42.57h-13.28Z"/><path d="M1284.45,91.08h12.88c.74,2.2,2.94,4.07,7.34,4.07,5.62,0,8-2.93,8-8V83h-.33a13.3,13.3,0,0,1-10.68,4.81c-9.37,0-18.09-7-18.09-19.81,0-12.23,7.17-20.87,17.52-20.87,5.55,0,9.3,2.2,11.74,5.71h.16V48.36h12.72V86c0,6.28-2.2,10.84-5.54,13.86-3.67,3.26-9.13,4.65-15.33,4.65C1293.34,104.53,1285.76,99.8,1284.45,91.08Zm28.78-23.56c0-5.63-2.94-10.35-8.48-10.35-5,0-8.23,4.07-8.23,10.43S1299.78,78,1304.75,78C1310.54,78,1313.23,73.39,1313.23,67.52Z"/><path d="M1289.79,140.42A70.21,70.21,0,1,1,1360,70.21,70.29,70.29,0,0,1,1289.79,140.42Zm0-128.19a58,58,0,1,0,58,58A58,58,0,0,0,1289.79,12.23Z"/><path d="M0,328.89V297.15c16,0,24.15,0,24.15-15.44V139H69.93V284c0,19.1-4.21,28.93-11,35.95C50.83,328,39.6,331.13,25.84,331.13A152.94,152.94,0,0,1,0,328.89ZM24.15,82H69.93V119.1H24.15Z"/><path d="M85.09,242.67c0-31.74,25.28-41.28,55-45.22,27-3.37,36.51-6.17,36.51-16,0-9.27-5.9-15.45-19.66-15.45-14.61,0-21.91,6.46-23.31,18.54H91.55c1.12-26.68,21.63-49.43,65.16-49.43,21.62,0,36.22,3.93,46.62,11.79,12.35,9,18.25,23,18.25,41v72.45c0,11.52,1.12,18,5,20.5v2H182.26c-2.24-3.09-3.65-8.71-4.77-16h-.56c-8.43,12.08-21.07,19.66-42.69,19.66C105.59,286.48,85.09,271,85.09,242.67Zm92.68-11.23V214.3c-5.9,3.09-14.32,5.34-23.59,7.59-17.69,3.93-25,8.42-25,19.37,0,11.52,8.43,16,19.66,16C166,257.27,177.77,246.88,177.77,231.44Z"/><path d="M243.76,82H289V187.62L331.66,139h52.8L333.91,193l56.45,89.87H337.28l-34.54-58.7L289,238.74v44.09H243.76Z"/><path d="M383.33,210.65c0-43,30.05-75.82,73.86-75.82,20.51,0,36.79,6.74,49.15,18,17.13,15.73,25.56,40.72,25.28,69.93H428.27c2.81,19.38,13.48,31.45,32.29,31.45,12.08,0,19.94-5.33,23.88-14.32h44.65c-3.09,12.92-11.51,25.28-24.15,34C492.86,282.27,478.26,287,460,287,412.54,287,383.33,254.18,383.33,210.65Zm101.95-15.16c-1.69-17.13-12.36-28.09-27.24-28.09-17.42,0-26.4,11-29.49,28.09Z"/><path d="M543.69,286.2h44.37c2.53,7.58,10.11,14,25.28,14,19.38,0,27.52-10.11,27.52-27.52V258.4h-1.12C631.31,267.94,620.36,275,603,275c-32.3,0-62.35-24.16-62.35-68.25,0-42.12,24.71-71.89,60.38-71.89,19.1,0,32,7.58,40.44,19.66H642V139h43.81V268.79c0,21.62-7.58,37.35-19.09,47.74-12.64,11.23-31.46,16-52.8,16C574.3,332.54,548.18,316.25,543.69,286.2ZM642.83,205c0-19.38-10.11-35.67-29.21-35.67-17.13,0-28.37,14-28.37,35.95,0,21.62,11.24,35.66,28.37,35.66C633.56,241,642.83,225.26,642.83,205Z"/><path d="M707.7,139h43.81v22.47h.84c10.11-17.13,21.9-24.72,39.32-24.72,4.21,0,7,.28,9,1.13v39.31h-1.12c-28.08-3.93-46.06,9.83-46.06,41v64.59H707.7Z"/><path d="M806,210.65c0-43,30-75.82,73.86-75.82,20.5,0,36.79,6.74,49.14,18,17.13,15.73,25.56,40.72,25.28,69.93H850.92c2.81,19.38,13.48,31.45,32.3,31.45,12.07,0,19.94-5.33,23.87-14.32h44.65c-3.09,12.92-11.51,25.28-24.15,34-12.08,8.43-26.68,13.2-44.93,13.2C835.19,287,806,254.18,806,210.65Zm101.94-15.16c-1.68-17.13-12.36-28.09-27.24-28.09-17.41,0-26.4,11-29.49,28.09Z"/><path d="M970,82h46.34v200.8H970Z"/><path d="M1038.8,82h46.33v200.8H1038.8Z"/><path d="M1100.58,242.67c0-31.74,25.27-41.28,55-45.22,27-3.37,36.51-6.17,36.51-16,0-9.27-5.9-15.45-19.66-15.45-14.6,0-21.9,6.46-23.31,18.54H1107c1.12-26.68,21.62-49.43,65.15-49.43,21.63,0,36.23,3.93,46.62,11.79,12.36,9,18.26,23,18.26,41v72.45c0,11.52,1.12,18,5,20.5v2h-44.37c-2.25-3.09-3.65-8.71-4.78-16h-.56c-8.42,12.08-21.06,19.66-42.69,19.66C1121.08,286.48,1100.58,271,1100.58,242.67Zm92.67-11.23V214.3c-5.89,3.09-14.32,5.34-23.59,7.59-17.69,3.93-25,8.42-25,19.37,0,11.52,8.42,16,19.66,16C1181.46,257.27,1193.25,246.88,1193.25,231.44Z"/></g></g></svg>