<svg xmlns="http://www.w3.org/2000/svg" viewBox="0 0 289.02 152.03"><defs><style>.cls-1{fill:#046062;}.cls-2{fill:#f9fdff;}</style></defs><g id="Layer_2" data-name="Layer 2"><g id="Layer_2-2" data-name="Layer 2"><path class="cls-1" d="M148.5,42.92A72.51,72.51,0,0,1,241.36,9.3L213,76h72.52a72.52,72.52,0,0,1-140.39,25.5c-.21-.57-.42-1.15-.62-1.73"/><path class="cls-1" d="M213.08,152a76.13,76.13,0,0,1-71.22-49.27c-.23-.6-.45-1.2-.66-1.81a3.5,3.5,0,0,1,6.62-2.29c.19.54.38,1.09.59,1.64A69,69,0,0,0,281.93,79.53H213a3.5,3.5,0,0,1-3.22-4.87l27-63.42a69,69,0,0,0-85.13,33.28,3.5,3.5,0,0,1-6.22-3.2A76,76,0,0,1,242.73,6.08a3.5,3.5,0,0,1,1.85,4.59L218.29,72.53h67.22A3.5,3.5,0,0,1,289,76a76.4,76.4,0,0,1-49.28,71.14A75.63,75.63,0,0,1,213.08,152Z"/><path class="cls-1" d="M148.5,42.92V3.53H76V76L63.5,58.53H5.63A72.52,72.52,0,0,0,144.51,99.81"/><path class="cls-1" d="M76,152A76.07,76.07,0,0,1,2.23,57.68,3.5,3.5,0,0,1,5.63,55H63.5a3.5,3.5,0,0,1,2.85,1.46L72.5,65.1V3.53A3.5,3.5,0,0,1,76,0h72.5a3.5,3.5,0,0,1,3.5,3.5V42.92a3.5,3.5,0,1,1-7,0V7H79.5V76a3.5,3.5,0,0,1-6.35,2L61.7,62H8.42A69,69,0,0,0,141.2,98.66a3.5,3.5,0,0,1,6.62,2.29A76.08,76.08,0,0,1,76,152Z"/><path class="cls-2" d="M144.51,99.81a72.27,72.27,0,0,0,4-23.78V42.92"/><path class="cls-2" d="M144.51,103.31a3.57,3.57,0,0,1-1.15-.2,3.51,3.51,0,0,1-2.16-4.45A68.83,68.83,0,0,0,145,76V42.92a3.5,3.5,0,0,1,7,0V76A75.92,75.92,0,0,1,147.82,101,3.5,3.5,0,0,1,144.51,103.31Z"/><path class="cls-2" d="M145.39,41.32A63.13,63.13,0,0,1,152,30.68V42.92Z"/><path class="cls-2" d="M141.2,101a75.51,75.51,0,0,0,3.31,8,36.7,36.7,0,0,0,3.31-8Z"/><path class="cls-2" d="M144.51,99.8a72.31,72.31,0,0,1,4-56.88"/><path class="cls-2" d="M144.51,103.31A3.51,3.51,0,0,1,141.2,101a75.29,75.29,0,0,1,4.19-59.63,3.5,3.5,0,1,1,6.22,3.2,68.37,68.37,0,0,0-3.79,54.14,3.5,3.5,0,0,1-2.16,4.45A3.57,3.57,0,0,1,144.51,103.31Z"/></g></g></svg>